<svg xmlns="http://www.w3.org/2000/svg" xmlns:xlink="http://www.w3.org/1999/xlink" viewBox="0 0 14 14"><defs><style>.cls-1{fill:url(#linear-gradient);}</style><linearGradient id="linear-gradient" x1="4.5" y1="15.39" x2="8.78" y2="2.22" gradientUnits="userSpaceOnUse"><stop offset="0" stop-color="#b6f8f9"/><stop offset="0.49" stop-color="#dddafe"/><stop offset="1" stop-color="#f9c4ff"/></linearGradient></defs><title>linkedin</title><g id="Layer_2" data-name="Layer 2"><g id="Layer_1-2" data-name="Layer 1"><path class="cls-1" d="M.5,2.88A1.65,1.65,0,0,1,0,1.69,1.63,1.63,0,0,1,.5.5,1.63,1.63,0,0,1,1.69,0,1.65,1.65,0,0,1,2.88.5a1.63,1.63,0,0,1,.5,1.19,1.65,1.65,0,0,1-.5,1.19,1.65,1.65,0,0,1-1.19.5A1.63,1.63,0,0,1,.5,2.88ZM.22,14V4.66H3.13V14Zm10.87,0V9.44a5.31,5.31,0,0,0-.18-1.63A1.32,1.32,0,0,0,9.56,7a1.46,1.46,0,0,0-1.4.75,3.46,3.46,0,0,0-.32,1.66V14H5V4.66H7.75V5.94h0a2.47,2.47,0,0,1,1-1,3,3,0,0,1,1.75-.5,3.1,3.1,0,0,1,2.85,1.28A6.41,6.41,0,0,1,14,8.88V14Z"/></g></g></svg>