<svg xmlns="http://www.w3.org/2000/svg" xmlns:xlink="http://www.w3.org/1999/xlink" viewBox="0 0 16 13"><defs><style>.cls-1{fill:url(#linear-gradient);}</style><linearGradient id="linear-gradient" x1="4.53" y1="13.33" x2="9.43" y2="-1.74" gradientUnits="userSpaceOnUse"><stop offset="0" stop-color="#b6f8f9"/><stop offset="0.49" stop-color="#dddafe"/><stop offset="1" stop-color="#f9c4ff"/></linearGradient></defs><title>twitter</title><g id="Layer_2" data-name="Layer 2"><g id="Layer_1-2" data-name="Layer 1"><path class="cls-1" d="M14.38,3.66A9.26,9.26,0,0,1,13.28,8a8.9,8.9,0,0,1-3.15,3.53A9,9,0,0,1,5,13a9.1,9.1,0,0,1-5-1.47q.35,0,.78,0a6.57,6.57,0,0,0,4.1-1.4A3.13,3.13,0,0,1,3,9.52,3.33,3.33,0,0,1,1.81,7.91l.6,0a3.69,3.69,0,0,0,.87-.1A3.27,3.27,0,0,1,1.41,6.69,3.15,3.15,0,0,1,.66,4.63V4.56A3,3,0,0,0,2.13,5,3.6,3.6,0,0,1,1.06,3.81a3.15,3.15,0,0,1-.4-1.58A3.08,3.08,0,0,1,1.13.59,8.94,8.94,0,0,0,4.11,3,9,9,0,0,0,7.88,4a3.81,3.81,0,0,1-.07-.75,3.28,3.28,0,0,1,.44-1.64A3.25,3.25,0,0,1,11.06,0a3.11,3.11,0,0,1,1.33.28A3.73,3.73,0,0,1,13.47,1,6.35,6.35,0,0,0,15.56.25a3.25,3.25,0,0,1-1.43,1.81A6.92,6.92,0,0,0,16,1.53a7.14,7.14,0,0,1-1.66,1.72A1.78,1.78,0,0,1,14.38,3.66Z"/></g></g></svg>